<svg xmlns="http://www.w3.org/2000/svg" width="64" height="90" viewBox="0 0 64 90" fill="none"><path id="Vector" d="M10.1696 86.5696C10.1729 85.1934 10.4709 83.8631 10.8294 82.5459C11.9279 78.5157 13.3439 74.592 14.8729 70.7076C17.7836 63.3156 21.0577 56.0858 24.7198 49.0395C27.3866 43.9084 30.15 38.8297 32.874 33.728C35.1234 29.516 37.3973 25.3187 39.622 21.0951C41.0577 18.369 42.4656 15.6265 43.8129 12.8561C45.0571 10.2988 45.9967 7.62507 46.555 4.82686C46.5713 4.74658 46.6155 4.66795 46.6123 4.58931C46.6057 4.43203 46.5746 4.27639 46.5533 4.12075C46.4011 4.14697 46.2259 4.13386 46.0999 4.20595C45.7937 4.38124 45.504 4.59095 45.2175 4.79901C41.8992 7.20403 38.7445 9.80564 35.8437 12.7038C32.3878 16.154 28.8943 19.5699 25.5335 23.1119C20.8744 28.0218 16.5886 33.2611 12.3944 38.5708C11.0749 40.2402 9.75384 41.908 8.45565 43.5922C8.19208 43.9346 7.90395 44.0526 7.48486 44.046C5.38451 44.0165 3.28416 44.0198 1.18381 43.9903C0.869496 43.9854 0.556819 43.8723 0.244141 43.8101C0.381654 43.5299 0.47824 43.2187 0.663228 42.9746C4.11906 38.4037 7.69441 33.9279 11.4171 29.5717C14.6257 25.8151 17.9539 22.1682 21.4015 18.6311C25.0031 14.9368 28.7323 11.3768 32.6743 8.04939C35.1561 5.95565 37.7607 4.02246 40.5126 2.28586C42.847 0.808122 45.3763 0.142975 48.1151 0.154443C49.5344 0.160996 50.9505 0.149528 52.3092 0.670506C53.8481 1.26029 54.5045 2.17282 54.5324 3.83405C54.5389 4.18792 54.5373 4.54999 54.4685 4.89403C54.2672 5.90977 54.0756 6.92879 53.8006 7.92488C53.0345 10.6936 51.9409 13.3394 50.6574 15.9067C47.696 21.8356 44.7346 27.7646 41.7666 33.6903C38.8477 39.5194 35.8928 45.3321 33.0034 51.1759C30.4152 56.4086 27.9809 61.7134 25.7889 67.1263C24.5922 70.0834 23.4151 73.0504 22.2315 76.0124C22.1202 76.2909 22.0203 76.5744 21.9287 76.8594C21.9008 76.9479 21.9221 77.0511 21.9205 77.1478C21.9876 77.1019 22.0662 77.0658 22.1186 77.0069C22.6277 76.4384 23.145 75.8748 23.6394 75.2932C27.9907 70.185 32.36 65.0883 36.6818 59.9555C39.9854 56.0334 43.2334 52.0638 46.4977 48.109C48.2362 46.0038 50.0043 43.9264 51.9802 42.0391C52.5712 41.4739 53.1802 40.9218 53.8186 40.4139C54.9056 39.5505 56.1383 38.9657 57.5298 38.8231C59.0245 38.6691 60.524 38.6527 62.0088 38.9591C62.1693 38.9919 62.3248 39.0427 62.4803 39.0951C63.3758 39.4047 63.7196 39.8159 63.5477 40.7432C63.3758 41.6721 63.1024 42.6043 62.7193 43.466C61.6454 45.8842 60.5027 48.2712 59.3666 50.6598C57.6101 54.3591 56.0647 58.1435 54.6944 62.0017C53.5174 65.3193 52.4926 68.681 51.7183 72.1166C51.6708 72.3295 51.6315 72.5474 51.5513 72.7489C50.9063 74.3643 50.1058 74.651 48.7961 74.4315C48.3721 74.361 47.9432 74.2283 47.5519 74.0481C46.054 73.3567 45.4221 72.2198 45.7495 70.5979C46.1392 68.6761 46.5828 66.7626 47.0919 64.8687C48.2182 60.6796 49.5852 56.5675 51.1551 52.5225C51.255 52.2653 51.2697 51.9754 51.3254 51.7001C51.1437 51.8984 50.9472 52.0851 50.7819 52.2965C48.3672 55.3945 45.9362 58.4827 43.5493 61.602C39.5533 66.8249 35.4541 71.9642 31.1846 76.9659C28.7765 79.787 26.3585 82.6016 23.9226 85.3999C23.2792 86.1387 22.5344 86.7891 21.8681 87.51C20.5945 88.8894 18.9672 89.4874 17.1632 89.7331C15.608 89.9445 14.0642 89.9003 12.5319 89.5546C12.3191 89.5071 12.1063 89.4546 11.9 89.3891C10.592 88.9697 10.2057 88.4454 10.1696 87.0594C10.1647 86.8956 10.1696 86.7318 10.1696 86.568V86.5696Z" fill="#C7051A"></path></svg>