<?xml version="1.0" encoding="UTF-8"?>
<svg id="Layer_1" xmlns="http://www.w3.org/2000/svg" version="1.1" viewBox="0 0 288 107">
  <!-- Generator: Adobe Illustrator 29.0.0, SVG Export Plug-In . SVG Version: 2.1.0 Build 186)  -->
  <defs>
    <style>
      .st0 {
        fill: #fff;
      }
    </style>
  </defs>
  <path class="st0" d="M154.17,86.57c0-1.38.3-2.71.66-4.02,1.1-4.03,2.51-7.95,4.04-11.84,2.91-7.39,6.18-14.62,9.85-21.67,2.67-5.13,5.43-10.21,8.15-15.31,2.25-4.21,4.52-8.41,6.75-12.63,1.44-2.73,2.84-5.47,4.19-8.24,1.24-2.56,2.18-5.23,2.74-8.03.02-.08.06-.16.06-.24,0-.16-.04-.31-.06-.47-.15.03-.33.01-.45.09-.31.18-.6.39-.88.59-3.32,2.41-6.47,5.01-9.37,7.9-3.46,3.45-6.95,6.87-10.31,10.41-4.66,4.91-8.94,10.15-13.14,15.46-1.32,1.67-2.64,3.34-3.94,5.02-.26.34-.55.46-.97.45-2.1-.03-4.2-.03-6.3-.06-.32,0-.63-.12-.94-.18.14-.28.23-.59.42-.84,3.46-4.57,7.03-9.05,10.75-13.4,3.21-3.76,6.54-7.4,9.98-10.94,3.6-3.69,7.33-7.25,11.27-10.58,2.48-2.09,5.09-4.03,7.84-5.76,2.33-1.48,4.86-2.14,7.6-2.13,1.42,0,2.83,0,4.19.52,1.54.59,2.2,1.5,2.22,3.16,0,.35,0,.72-.06,1.06-.2,1.02-.39,2.03-.67,3.03-.77,2.77-1.86,5.41-3.14,7.98-2.96,5.93-5.92,11.86-8.89,17.78-2.92,5.83-5.87,11.64-8.76,17.49-2.59,5.23-5.02,10.54-7.21,15.95-1.2,2.96-2.37,5.92-3.56,8.89-.11.28-.21.56-.3.85-.03.09,0,.19,0,.29.07-.05.15-.08.2-.14.51-.57,1.03-1.13,1.52-1.71,4.35-5.11,8.72-10.2,13.04-15.34,3.3-3.92,6.55-7.89,9.82-11.85,1.74-2.11,3.51-4.18,5.48-6.07.59-.57,1.2-1.12,1.84-1.63,1.09-.86,2.32-1.45,3.71-1.59,1.49-.15,2.99-.17,4.48.14.16.03.32.08.47.14.9.31,1.24.72,1.07,1.65-.17.93-.45,1.86-.83,2.72-1.07,2.42-2.22,4.81-3.35,7.19-1.76,3.7-3.3,7.48-4.67,11.34-1.18,3.32-2.2,6.68-2.98,10.11-.05.21-.09.43-.17.63-.64,1.62-1.44,1.9-2.75,1.68-.42-.07-.85-.2-1.24-.38-1.5-.69-2.13-1.83-1.8-3.45.39-1.92.83-3.84,1.34-5.73,1.13-4.19,2.49-8.3,4.06-12.35.1-.26.12-.55.17-.82-.18.2-.38.38-.54.6-2.41,3.1-4.85,6.19-7.23,9.31-4,5.22-8.1,10.36-12.36,15.36-2.41,2.82-4.83,5.64-7.26,8.43-.64.74-1.39,1.39-2.06,2.11-1.27,1.38-2.9,1.98-4.71,2.22-1.55.21-3.1.17-4.63-.18-.21-.05-.43-.1-.63-.17-1.31-.42-1.69-.94-1.73-2.33,0-.16,0-.33,0-.49h0Z"/>
  <path class="st0" d="M60.66,70.75h-7.36c-1.02,0-1.84-.42-2.52-1.15-.42-.45-.6-.97-.46-1.58.42-1.91.83-3.83,1.3-5.73.72-2.94,1.46-5.87,2.24-8.78.15-.56.01-.95-.28-1.36-.22-.31-.48-.59-.71-.9-.12-.17-.08-.31.16-.33.22-.01.44-.02.65-.02,2.84,0,5.67,0,8.51,0,1.34,0,1.38.04,1.05,1.33-1.18,4.67-2.38,9.34-3.57,14.01-.18.69-.32,1.38-.5,2.06-.1.38,0,.6.4.62.95.04,1.91.05,2.86.09.61.02.92-.23,1.08-.84.39-1.53.85-3.04,1.27-4.56,1.05-3.83,2.09-7.67,3.15-11.5.32-1.15.37-1.2,1.56-1.2,2.15-.01,4.31,0,6.46,0,.11,0,.22,0,.33,0,.72.04.81.14.64.84-.42,1.75-.84,3.49-1.3,5.23-.84,3.21-1.75,6.41-2.53,9.64-.37,1.53-1.27,2.55-2.52,3.36-.77.5-1.62.77-2.54.77h-7.36Z"/>
  <path class="st0" d="M109.34,70.75c-2.35,0-4.69,0-7.04,0-.7,0-1.35-.18-1.95-.53-1.16-.66-1.59-1.58-1.29-2.89.41-1.78.84-3.55,1.3-5.32.62-2.37,1.33-4.72,1.89-7.1.5-2.12,2.03-3.13,3.82-3.94.16-.07.37-.06.56-.06,5.07,0,10.15,0,15.22-.01.94,0,1.78.23,2.44.94.6.63.91,1.38.69,2.25-1.09,4.22-2.22,8.42-3.29,12.64-.67,2.65-2.92,4-5.39,4.01-2.32,0-4.64,0-6.95,0h0s0,.01,0,.01ZM109.97,69.08c.38-.04.9-.08,1.41-.13.36-.04.6-.24.71-.59.17-.52.36-1.03.5-1.55.92-3.39,1.84-6.78,2.74-10.17.28-1.05.53-2.11.78-3.17.15-.66.11-.73-.54-.74-.9-.02-1.8-.02-2.7.01-.85.03-.89.05-1.11.89-1.19,4.39-2.37,8.78-3.55,13.17-.12.45-.2.9-.29,1.36-.13.65-.07.74.61.83.43.06.87.06,1.44.09h0Z"/>
  <path class="st0" d="M133.75,50.87c1.58,0,3.16.02,4.75,0,.51,0,.79.16.99.64,1.01,2.5,2.04,5,3.07,7.49.63,1.54,1.27,3.07,1.91,4.61.05.11.15.21.23.31.06-.11.15-.21.18-.32.48-1.79.96-3.58,1.42-5.37.58-2.21,1.15-4.43,1.73-6.64.17-.66.18-.67.87-.67.95-.01,1.91-.02,2.86-.01.84,0,.87.03.67.82-.84,3.38-1.68,6.76-2.56,10.14-.65,2.5-1.35,5-2.05,7.49-.38,1.36-.4,1.43-1.8,1.45-2.32.04-4.63-.02-6.95-.04-.52,0-.75-.33-.93-.77-.92-2.24-1.85-4.49-2.78-6.73-.66-1.58-1.34-3.16-2.01-4.74-.03-.08-.06-.15-.11-.22-.1-.16-.2-.31-.3-.46-.1.18-.23.35-.29.54-.15.49-.27,1-.4,1.5-.87,3.24-1.73,6.47-2.6,9.71-.03.13-.1.26-.12.39-.11.56-.45.86-1.02.87-.95,0-1.91.02-2.86-.04-.62-.04-.7-.18-.54-.8.58-2.32,1.19-4.64,1.78-6.96.81-3.19,1.6-6.39,2.44-9.58.16-.61.02-1.04-.37-1.49-.26-.29-.68-.48-.68-.96.38-.03.75-.09,1.13-.09,1.45-.01,2.89,0,4.34,0v-.02h0Z"/>
  <path class="st0" d="M38.29,50.87c1.64,0,3.27,0,4.91,0,.68,0,.71,0,.87.68.54,2.25,1.07,4.5,1.56,6.76.82,3.75,1.6,7.51,2.4,11.26.24,1.12.22,1.15-.92,1.16-2.34.03-4.69.07-7.03.09-.76,0-1.53-.07-2.29-.08-.45,0-.72-.22-.84-.63-.21-.7-.45-1.4-.63-2.11-.13-.52-.42-.79-.96-.81-.35,0-.71-.06-1.06-.07-1.69,0-3.38.03-5.07-.01-.98-.02-1.73.29-2.29,1.12-.46.67-1.01,1.28-1.52,1.93-.3.39-.69.61-1.19.6-.98,0-1.95,0-2.93,0-.34,0-.43-.19-.24-.48.49-.75.97-1.52,1.49-2.25,3.32-4.66,6.65-9.32,9.99-13.97.28-.39.35-.77.28-1.22-.07-.46-.12-.92-.14-1.38-.02-.52,0-.55.55-.56,1.69-.01,3.38,0,5.07,0v-.04h0ZM34.99,65.17c.53-.04.54-.06.49-.6-.03-.35-.1-.7-.17-1.05-.35-1.62-.71-3.24-1.08-4.85-.03-.13-.11-.24-.17-.36-.13.08-.29.14-.37.25-.72.99-1.43,1.99-2.12,3-.67.99-1.33,1.99-1.98,3-.34.54-.31.62.34.66.76.05,4.13,0,5.06-.06h0Z"/>
  <path class="st0" d="M226.11,73.37c-.93.04-1.86.07-2.73-.33-.2-.09-.41-.16-.59-.28-.54-.35-.51-.85.07-1.11.5-.22,1.01-.4,1.54-.55,2.26-.63,3.47-2.32,3.48-4.66,0-.6,0-1.2-.07-1.8-.06-.58-.25-.68-.74-.37-.74.47-1.43.99-2.17,1.47-1.51.98-2.99,2.01-4.56,2.89-2.98,1.66-5.93,1.26-8.8-.35-.88-.49-.85-.5-1.66.1-1.95,1.46-4.14,2.03-6.55,1.71-2.16-.29-3.16-1.64-2.94-3.83.22-2.24.93-4.31,2.01-6.26.34-.62.73-1.22,1.08-1.83.76-1.37,1.98-1.69,3.42-1.51,1.48.19,1.75.58,1.29,2-.22.67-.53,1.32-.82,1.96-.87,1.93-1.39,3.96-1.87,6-.06.27.03.57.05.85.24-.15.55-.24.71-.45.99-1.31,1.92-2.65,2.9-3.96.8-1.06,1.62-2.12,2.5-3.13.9-1.03,2.06-1.38,3.4-1.06.4.09.81.14,1.2.26.57.18.68.39.51.98-.31,1.13-.69,2.24-.95,3.38-.21.93-.35,1.87-.11,2.84.19.76.85,1.44,1.83,1.11.56-.19,1.13-.42,1.62-.75,1.84-1.22,3.57-2.6,5.06-4.25.64-.71,1.33-1.37,2.02-2.02,1.54-1.47,3.17-1.21,4.66-.11.32.24.62.54.89.85,1.08,1.27,2.01,2.65,2.71,4.17,1.11,2.42.5,4.66-1.68,6.18-1.65,1.16-3.51,1.72-5.51,1.86-.41.03-.82,0-1.23,0h0Z"/>
  <path class="st0" d="M85.27,70.87c-2.7,0-5.4,0-8.1,0-.82,0-1.63-.07-2.45-.11-.32-.01-.39-.15-.19-.41.58-.72,1.15-1.45,1.75-2.16,3.69-4.38,7.4-8.75,11.09-13.12.51-.6,1.01-1.22,1.5-1.84.24-.3.18-.43-.2-.47-.27-.03-.55-.03-.82-.03-1.96,0-3.93-.03-5.89,0-.56,0-1.01-.12-1.38-.54-.25-.29-.55-.53-.8-.82-.21-.24-.16-.37.16-.42.19-.03.38-.03.57-.03,6.57,0,13.15,0,19.72,0,.16,0,.33-.01.49.02.26.05.51.13.77.19-.12.2-.23.42-.38.59-2.52,3.01-5.05,6.01-7.58,9.02-2.07,2.46-4.14,4.93-6.21,7.39-.05.06-.1.13-.15.19-.43.57-.42.61.28.65,1.2.06,2.4.08,3.6.09,1.01.01,2.02.03,3.03,0,.54-.02.94.14,1.29.54.23.27.5.5.73.77.22.25.12.39-.19.4-1.17.04-2.34.1-3.51.11-2.37.02-4.75,0-7.12,0h0s0,0,0,0Z"/>
  <path class="st0" d="M111.14,106.9c-.54-.14-1.47-.27-2.32-.6-1.15-.44-1.44-1.2-1.05-2.37.19-.57.42-1.12.7-1.65,2.68-5.15,5.35-10.31,8.08-15.43,1.57-2.96,3.27-5.86,4.88-8.8.25-.46.53-.66,1.08-.65,1.99.04,3.98.01,5.97.01.22,0,.44,0,.65.02.23.01.28.13.17.32-.2.36-.4.71-.61,1.06-3.46,5.94-6.7,12-9.69,18.18-1.15,2.38-2.23,4.8-3.38,7.18-.28.58-.68,1.12-1.11,1.6-.79.85-1.86,1.08-3.36,1.13h0Z"/>
  <path class="st0" d="M253.93,73.44c-1.53.03-2.99-.21-4.34-.98-.99-.57-1.81-1.3-2.33-2.34-.36-.7-.41-.75-1.14-.4-1.97.94-4.06.96-6.17.83-.46-.03-.92-.15-1.35-.32-1.21-.46-1.88-1.67-1.72-3.04.13-1.07.42-2.09.95-3.03.55-.97,1.13-1.93,1.79-2.83,1.05-1.44,2.55-1.82,4.21-1.18.73.28.96.64.71,1.39-.35,1.03-.8,2.03-1.2,3.04-.44,1.12-.87,2.23-1.29,3.35-.09.23-.13.48-.14.72,0,.18.02.44.13.51.1.07.37,0,.51-.1.38-.26.74-.56,1.1-.85,1.24-.98,2.44-2.02,3.74-2.91,2.42-1.66,5.12-2.53,8.07-2.55,1.29,0,2.57.15,3.74.74.38.19.75.45,1.05.75.28.27.15.58-.25.61-.32.02-.65-.02-.97-.08-.53-.1-1.06-.27-1.59-.35-1.31-.2-2.44.19-3.29,1.22-.44.54-.8,1.17-1.14,1.79-.15.27-.22.62-.24.94-.04.86.35,1.38,1.19,1.48.91.11,1.85.16,2.77.11,3.69-.2,7.26-1.11,10.84-1.95,6.47-1.5,12.94-3.03,19.41-4.54.33-.08.68-.03,1.02-.04-.08.43-.48.48-.78.6-2.38.94-4.76,1.9-7.16,2.78-4.64,1.68-9.31,3.24-14.08,4.51-2.9.78-5.82,1.41-8.8,1.82-1.08.15-2.17.19-3.25.29h0Z"/>
  <path class="st0" d="M9.09,70.77H.99c-.14,0-.27,0-.41,0-.59-.04-.66-.11-.51-.7.74-2.88,1.49-5.75,2.23-8.62.71-2.74,1.4-5.49,2.13-8.22.1-.37.05-.63-.17-.9-.27-.34-.55-.68-.81-1.03-.14-.19-.16-.36.16-.38.19,0,.38-.01.57-.01,2.89,0,5.78,0,8.67,0,1.27,0,1.27.01.94,1.28-1.22,4.69-2.44,9.38-3.65,14.08-.17.66-.31,1.33-.45,1.99-.1.49-.04.57.46.63.22.03.44.03.65.03,2.94.06,5.89.12,8.84.18.21,0,.41.05.62.08-.15.14-.3.29-.46.42-1.17.98-2.49,1.28-4.01,1.21-2.23-.11-4.47-.03-6.71-.03h0Z"/>
  <path class="st0" d="M245.97,51.62c.66.12,1.34.21,1.99.39.7.19.82.42.53,1.07-.46,1.04-.96,2.07-1.49,3.08-.38.7-1.01,1.18-1.81,1.27-.88.09-1.79.12-2.68.06-.93-.07-1.4-.92-1-1.77.39-.84.85-1.64,1.28-2.46.59-1.1,1.54-1.55,2.76-1.54h.41s0-.06.01-.09h0Z"/>
</svg>